<svg width="32" height="32" viewBox="0 0 32 32" fill="none" xmlns="http://www.w3.org/2000/svg">
<circle cx="16" cy="16" r="16" fill="url(#paint0_linear_33_7099)" fill-opacity="0.9"/>
<circle cx="16" cy="16" r="15.5" stroke="black" stroke-opacity="0.06"/>
<path d="M12.1855 21V11.1973H15.2412C16.973 11.1973 18.2718 11.596 19.1377 12.3936C20.0036 13.1865 20.4365 14.3805 20.4365 15.9756C20.4365 17.4932 19.958 18.71 19.001 19.626C18.0485 20.542 16.7747 21 15.1797 21H12.1855ZM13.8125 12.5781V19.6191H15.1113C16.2461 19.6191 17.1325 19.3024 17.7705 18.6689C18.4085 18.0309 18.7275 17.1423 18.7275 16.0029C18.7275 14.891 18.4222 14.0433 17.8115 13.46C17.2054 12.8721 16.3145 12.5781 15.1387 12.5781H13.8125Z" fill="white" fill-opacity="0.8956"/>
<defs>
<linearGradient id="paint0_linear_33_7099" x1="16" y1="0" x2="16" y2="32" gradientUnits="userSpaceOnUse">
<stop stop-color="#ADDC8A"/>
<stop offset="1" stop-color="#77C875"/>
</linearGradient>
</defs>
</svg>
