<svg width="11" height="11" viewBox="0 0 11 11" fill="none" xmlns="http://www.w3.org/2000/svg">
<path d="M7.05224 1.43513C6.3425 0.725393 5.14947 0.899454 4.67209 1.78239L3.14488 4.60708L0.814922 5.53552C0.658682 5.59778 0.544211 5.73442 0.510286 5.89915C0.476361 6.06388 0.527528 6.23463 0.646455 6.35356L2.29296 8.00007L0.14655 10.1465L0 11L0.853657 10.8536L3.00007 8.70718L4.64645 10.3536C4.7653 10.4724 4.9359 10.5236 5.10054 10.4898C5.26518 10.456 5.40183 10.3418 5.46425 10.1857L6.39704 7.85371L9.21798 6.32796C10.1008 5.8505 10.2747 4.6576 9.56503 3.94792L7.05224 1.43513ZM5.55175 2.25799C5.71088 1.96368 6.10856 1.90566 6.34514 2.14224L8.85793 4.65503C9.09448 4.89159 9.0365 5.28922 8.74224 5.44838L5.76214 7.06021C5.65929 7.11584 5.5792 7.20575 5.53577 7.31431L4.81738 9.11027L1.89051 6.1834L3.68354 5.46891C3.79239 5.42553 3.88256 5.3453 3.93829 5.24223L5.55175 2.25799Z" fill="black" fill-opacity="0.4"/>
</svg>
