<svg width="10" height="10" viewBox="0 0 10 10" fill="none" xmlns="http://www.w3.org/2000/svg">
<path d="M9.99805 3.99805C9.99805 4.54883 9.89258 5.06836 9.68164 5.55664C9.47461 6.04102 9.18945 6.46484 8.82617 6.82812C8.46289 7.1875 8.03906 7.47266 7.55469 7.68359C7.07031 7.89453 6.55273 8 6.00195 8C5.55273 8 5.11914 7.92773 4.70117 7.7832C4.28711 7.63867 3.90234 7.42969 3.54688 7.15625L0.851562 9.85156C0.753906 9.94922 0.636719 9.99805 0.5 9.99805C0.363281 9.99805 0.246094 9.94922 0.148438 9.85156C0.0507812 9.75391 0.00195312 9.63672 0.00195312 9.5C0.00195312 9.36328 0.0507812 9.24609 0.148438 9.14844L2.84375 6.45312C2.57031 6.09766 2.36133 5.71289 2.2168 5.29883C2.07227 4.88086 2 4.44727 2 3.99805C2 3.44727 2.10547 2.92969 2.31641 2.44531C2.52734 1.96094 2.8125 1.53711 3.17188 1.17383C3.53516 0.810547 3.95898 0.525391 4.44336 0.318359C4.93164 0.107422 5.45117 0.00195312 6.00195 0.00195312C6.36914 0.00195312 6.72266 0.0507812 7.0625 0.148438C7.40234 0.242188 7.7207 0.376953 8.01758 0.552734C8.31445 0.724609 8.58398 0.931641 8.82617 1.17383C9.06836 1.41602 9.27539 1.68555 9.44727 1.98242C9.62305 2.2793 9.75781 2.59766 9.85156 2.9375C9.94922 3.27734 9.99805 3.63086 9.99805 3.99805ZM9.00195 3.99805V3.93945C9.00195 3.5332 8.91992 3.15234 8.75586 2.79688C8.5957 2.4375 8.37695 2.125 8.09961 1.85938C7.82617 1.59375 7.50781 1.38477 7.14453 1.23242C6.78516 1.07617 6.4043 0.998047 6.00195 0.998047C5.58789 0.998047 5.19727 1.07617 4.83008 1.23242C4.4668 1.38867 4.14844 1.60352 3.875 1.87695C3.60547 2.14648 3.39258 2.46484 3.23633 2.83203C3.08008 3.19531 3.00195 3.58398 3.00195 3.99805C3.00195 4.41211 3.08008 4.80273 3.23633 5.16992C3.39258 5.5332 3.60547 5.85156 3.875 6.125C4.14844 6.39453 4.4668 6.60742 4.83008 6.76367C5.19727 6.91992 5.58789 6.99805 6.00195 6.99805C6.41602 6.99805 6.80469 6.91992 7.16797 6.76367C7.53516 6.60742 7.85352 6.39453 8.12305 6.125C8.39648 5.85156 8.61133 5.5332 8.76758 5.16992C8.92383 4.80273 9.00195 4.41211 9.00195 3.99805Z" fill="black" fill-opacity="0.6063"/>
</svg>
