<svg width="32" height="32" viewBox="0 0 32 32" fill="none" xmlns="http://www.w3.org/2000/svg">
<circle cx="16" cy="16" r="16" fill="url(#paint0_linear_33_7116)" fill-opacity="0.9"/>
<circle cx="16" cy="16" r="15.5" stroke="black" stroke-opacity="0.06"/>
<path d="M8.63086 21V11.1973H11.7754C12.737 11.1973 13.4844 11.4023 14.0176 11.8125C14.5553 12.2181 14.8242 12.7809 14.8242 13.501C14.8242 14.0433 14.6693 14.5173 14.3594 14.9229C14.054 15.3239 13.6462 15.6064 13.1357 15.7705V15.7979C13.7829 15.8753 14.3001 16.1237 14.6875 16.543C15.0749 16.9622 15.2686 17.4932 15.2686 18.1357C15.2686 19.0016 14.9587 19.6966 14.3389 20.2207C13.7191 20.7402 12.9056 21 11.8984 21H8.63086ZM10.2578 12.5029V15.3193H11.3447C11.8916 15.3193 12.3223 15.1872 12.6367 14.9229C12.9557 14.6585 13.1152 14.2871 13.1152 13.8086C13.1152 13.3711 12.9671 13.0452 12.6709 12.8311C12.3792 12.6123 11.9417 12.5029 11.3584 12.5029H10.2578ZM10.2578 16.625V19.6943H11.6523C12.2539 19.6943 12.721 19.5531 13.0537 19.2705C13.391 18.988 13.5596 18.6029 13.5596 18.1152C13.5596 17.6276 13.3864 17.2585 13.04 17.0078C12.6937 16.7526 12.1901 16.625 11.5293 16.625H10.2578ZM24.2168 20.5146C23.7246 20.7425 23.2461 20.9066 22.7812 21.0068C22.3164 21.1117 21.8105 21.1641 21.2637 21.1641C19.7643 21.1641 18.5908 20.7266 17.7432 19.8516C16.8955 18.972 16.4717 17.7734 16.4717 16.2559C16.4717 14.7064 16.9388 13.4486 17.873 12.4824C18.8118 11.5163 20.04 11.0332 21.5576 11.0332C22.0452 11.0332 22.4919 11.0742 22.8975 11.1562C23.3076 11.2337 23.7314 11.3613 24.1689 11.5391L23.6426 12.8652C23.2962 12.724 22.959 12.6214 22.6309 12.5576C22.3073 12.4938 21.9564 12.4619 21.5781 12.4619C20.5846 12.4619 19.7689 12.7923 19.1309 13.4531C18.4974 14.1139 18.1807 15.0117 18.1807 16.1465C18.1807 17.2539 18.4746 18.1289 19.0625 18.7715C19.6504 19.4095 20.4388 19.7285 21.4277 19.7285C21.7513 19.7285 22.0977 19.6875 22.4668 19.6055C22.8359 19.5234 23.2165 19.389 23.6084 19.2021L24.2168 20.5146Z" fill="white" fill-opacity="0.8956"/>
<defs>
<linearGradient id="paint0_linear_33_7116" x1="16" y1="0" x2="16" y2="32" gradientUnits="userSpaceOnUse">
<stop stop-color="#D7A8EF"/>
<stop offset="1" stop-color="#C973E7"/>
</linearGradient>
</defs>
</svg>
