<!-- icon666.com - MILLIONS vector ICONS FREE --><svg viewBox="0 0 50 50" xmlns="http://www.w3.org/2000/svg"><g id="Icons"><path d="m23.3 40.2a9.55 9.55 0 1 1 -13.5-13.5l5.92-6-1.43-1.4-5.91 6a11.54 11.54 0 1 0 16.32 16.32l6-5.91-1.4-1.42z"></path><path d="m41.62 8.38a11.54 11.54 0 0 0 -16.32 0l-6 5.91 1.4 1.42 6-5.91a9.54 9.54 0 0 1 13.5 0 9.55 9.55 0 0 1 0 13.5l-5.91 6 1.43 1.4 5.9-6a11.56 11.56 0 0 0 0-16.32z"></path><path d="m12.27 24h25.46v2h-25.46z" transform="matrix(.707 -.707 .707 .707 -10.35 25)"></path></g></svg>