<!-- icon666.com - MILLIONS vector ICONS FREE --><svg id="Layer_1" enable-background="new 0 0 30 30" viewBox="0 0 30 30" xmlns="http://www.w3.org/2000/svg"><path d="m27.319.922c-.709-.164-1.453-.076-2.104.249l-19.379 9.692c-.789.459-.18 1.7.671 1.338 0 0 19.381-9.686 19.381-9.686.393-.197.85-.223 1.263-.073l-17.437 16.568-6.778-1.849c-1.415-.337-1.615-2.414-.299-3.021.809-.458.178-1.711-.67-1.339-2.544 1.21-2.149 5.125.576 5.811 0 0 6.632 1.809 6.632 1.809v4.221c-.076 2.83 3.666 4.214 5.478 2.056 0 0 1.139-1.3 1.139-1.3l3.748 3.067c1.707 1.456 4.583.495 5.024-1.72 0 0 5.093-22.073 5.093-22.073.389-1.681-.657-3.36-2.338-3.75zm-13.801 24.786c-.923 1.122-2.898.389-2.844-1.069v-3.258l3.944 3.075zm14.676-21.373-5.093 22.071c-.222 1.119-1.661 1.638-2.557.942-.027-.027-9.452-7.547-9.468-7.559l17.093-16.248c.074.258.083.531.025.794z"></path></svg>